<svg width="512" height="512" viewBox="0 0 512 512" fill="none" xmlns="http://www.w3.org/2000/svg">
  <rect width="512" height="512" rx="96" fill="#0E1116"/>
  <circle cx="256" cy="218" r="92" fill="#F0D0B4"/>
  <path d="M158 224C164 134 207 90 271 91C328 92 369 132 374 205C342 179 308 169 269 170C224 171 187 189 158 224Z" fill="#1F2937"/>
  <path d="M160 371C179 308 213 277 256 277C299 277 333 308 352 371C321 397 289 410 256 410C223 410 191 397 160 371Z" fill="#2C7A7B"/>
  <circle cx="222" cy="224" r="10" fill="#111827"/>
  <circle cx="291" cy="224" r="10" fill="#111827"/>
  <path d="M226 258C245 274 269 274 288 258" stroke="#111827" stroke-width="10" stroke-linecap="round"/>
  <path d="M118 420C150 378 196 354 256 354C316 354 362 378 394 420" stroke="#E8B547" stroke-width="22" stroke-linecap="round"/>
</svg>
